<svg xmlns="http://www.w3.org/2000/svg" viewBox="0 0 100 100" width="100" height="100">
  <circle cx="50" cy="50" r="46" fill="#0f2e5a" stroke="#d97706" stroke-width="3"/>
  <circle cx="50" cy="50" r="38" fill="#ffffff" stroke="#0f2e5a" stroke-width="1.5"/>
  <path d="M50 22 L62 38 L38 38 Z" fill="#b91c1c"/>
  <path d="M30 45 Q50 35 70 45 L70 65 Q50 78 30 65 Z" fill="#0f2e5a"/>
  <!-- Open Book in Center -->
  <path d="M36 50 Q50 46 50 60 Q50 46 64 50 L64 62 Q50 58 50 72 Q50 58 36 62 Z" fill="#ffffff"/>
  <path d="M50 46 L50 72" stroke="#10b981" stroke-width="1.5"/>
  <!-- Stars -->
  <polygon points="50,14 52,18 56,18 53,21 54,25 50,22 46,25 47,21 44,18 48,18" fill="#f59e0b"/>
</svg>
